<?xml version="1.0" encoding="UTF-8" standalone="no"?>
<svg
   xmlns:dc="http://purl.org/dc/elements/1.1/"
   xmlns:cc="http://creativecommons.org/ns#"
   xmlns:rdf="http://www.w3.org/1999/02/22-rdf-syntax-ns#"
   xmlns:svg="http://www.w3.org/2000/svg"
   xmlns="http://www.w3.org/2000/svg"
   xmlns:sodipodi="http://sodipodi.sourceforge.net/DTD/sodipodi-0.dtd"
   xmlns:inkscape="http://www.inkscape.org/namespaces/inkscape"
   viewBox="0.0 0.0 348.0 348.0"
   fill="none"
   version="1.1"
   id="svg6"
   sodipodi:docname="Negativity.svg"
   inkscape:version="0.92.4 (5da689c313, 2019-01-14)">
  <metadata
     id="metadata12">
    <rdf:RDF>
      <cc:Work
         rdf:about="">
        <dc:format>image/svg+xml</dc:format>
        <dc:type
           rdf:resource="http://purl.org/dc/dcmitype/StillImage" />
      </cc:Work>
    </rdf:RDF>
  </metadata>
  <defs
     id="defs10" />
  <sodipodi:namedview
     pagecolor="#ffffff"
     bordercolor="#666666"
     borderopacity="1"
     objecttolerance="10"
     gridtolerance="10"
     guidetolerance="10"
     inkscape:pageopacity="0"
     inkscape:pageshadow="2"
     inkscape:window-width="1366"
     inkscape:window-height="706"
     id="namedview8"
     showgrid="false"
     inkscape:zoom="1.5556349"
     inkscape:cx="69.541044"
     inkscape:cy="174"
     inkscape:window-x="-8"
     inkscape:window-y="-8"
     inkscape:window-maximized="1"
     inkscape:current-layer="text855-6" />
  <path
     d="M5.079 5.776h336.913v337.67H5.08z"
     stroke-width="2"
     stroke="#000"
     id="path2" />
  <path
     d="M282.734 40.554c0-8.376 6.966-15.165 15.56-15.165 4.126 0 8.084 1.597 11.001 4.441 2.918 2.844 4.558 6.702 4.558 10.724 0 8.376-6.966 15.165-15.56 15.165-8.593 0-15.559-6.79-15.559-15.165z"
     stroke-width="2"
     stroke="#000"
     id="path4" />
  <path
     style="opacity:1;vector-effect:none;fill:#000000;fill-opacity:1;stroke:#000000;stroke-width:2;stroke-linecap:butt;stroke-linejoin:miter;stroke-miterlimit:4;stroke-dasharray:none;stroke-dashoffset:0;stroke-opacity:1"
     d="M 20.190172,18.070417 H 262.02068 V 100.64669 H 20.190172 Z"
     id="rect14" />
  <path
     style="opacity:1;vector-effect:none;fill:#ffffff;fill-opacity:1;stroke:#000000;stroke-width:1.35256875;stroke-linecap:butt;stroke-linejoin:miter;stroke-miterlimit:4;stroke-dasharray:none;stroke-dashoffset:0;stroke-opacity:1"
     d="M 30.825554,129.60124 H 317.36742 v 31.87403 H 30.825554 Z"
     id="rect14-2" />
  <path
     style="opacity:1;vector-effect:none;fill:#ffffff;fill-opacity:1;stroke:#000000;stroke-width:2;stroke-linecap:butt;stroke-linejoin:miter;stroke-miterlimit:4;stroke-dasharray:none;stroke-dashoffset:0;stroke-opacity:1"
     d="M 38.825554,195.47527 H 154.0965 V 310.74621 H 38.825554 Z"
     id="rect836" />
  <path
     style="opacity:1;vector-effect:none;fill:#000000;fill-opacity:1;stroke:#000000;stroke-width:2;stroke-linecap:butt;stroke-linejoin:miter;stroke-miterlimit:4;stroke-dasharray:none;stroke-dashoffset:0;stroke-opacity:1"
     d="M 194.0965,195.47527 H 309.36744 V 310.74621 H 194.0965 Z"
     id="rect836-3" />
  <g
     aria-label="C"
     style="font-style:normal;font-variant:normal;font-weight:normal;font-stretch:normal;font-size:131.52961731px;line-height:1.25;font-family:ABlackCrown;-inkscape-font-specification:ABlackCrown;letter-spacing:0px;word-spacing:0px;fill:#000000;fill-opacity:1;stroke:none;stroke-width:6.16545057"
     id="text855">
    <path
       d="m 109.39788,209.6909 q 5.00943,0 10.66109,5.39477 5.65166,5.39477 5.65166,10.27575 0,2.44049 -4.75253,6.55079 -4.75254,3.98186 -6.93613,3.98186 0,-0.2569 0,-0.51379 0,-5.00943 -4.3672,-9.76196 -4.36719,-4.88098 -9.37662,-4.88098 -6.936135,0 -13.358479,5.39476 -6.293898,5.39477 -9.890411,13.87227 -3.596513,8.47749 -3.596513,16.6981 0,8.09215 1.926704,14.51449 2.05515,6.2939 6.936132,10.6611 4.880982,4.23874 11.945561,4.23874 13.615366,0 32.497066,-14.38605 -0.51379,2.1836 -2.31205,4.62409 -1.79825,2.44049 -2.69738,3.85341 -3.21117,5.00943 -16.31276,11.17488 -10.661089,5.00942 -19.652371,5.00942 -5.78011,0 -10.275752,-2.82583 -4.495641,-2.82583 -7.064579,-7.57836 -5.137875,-9.24818 -5.137875,-21.96442 0,-8.60594 3.853407,-18.23946 3.981853,-9.63352 10.147304,-17.59722 6.293898,-7.96371 14.899839,-13.23003 8.605947,-5.26633 17.211887,-5.26633 z"
       style="stroke-width:6.16545057"
       id="path883" />
  </g>
  <g
     aria-label="S"
     style="font-style:normal;font-variant:normal;font-weight:normal;font-stretch:normal;font-size:131.52961731px;line-height:1.25;font-family:ABlackCrown;-inkscape-font-specification:ABlackCrown;letter-spacing:0px;word-spacing:0px;fill:#ffffff;fill-opacity:1;stroke:none;stroke-width:6.16545057"
     id="text855-6">
    <path
       d="m 279.07764,207.71058 q -1.02757,2.69738 -4.49564,7.32147 -3.33962,4.49564 -5.52321,4.49564 h -0.12845 l -0.12845,0.12845 q -5.90855,-1.66981 -11.04643,-1.66981 -5.00943,0 -9.24818,1.28447 -0.25689,1.15602 -0.12844,2.44049 0,6.67924 2.56893,12.07401 2.69739,5.26632 6.80769,8.73438 4.23875,3.33962 9.37662,6.16546 5.13788,2.82583 10.14731,5.26632 5.13787,2.44049 9.37662,5.00943 9.50507,5.78011 9.50507,14.5145 0,6.67923 -7.44992,12.45934 -7.32147,5.78011 -16.82654,8.73439 -9.37663,2.95428 -16.4412,2.95428 -7.06458,0 -15.28518,-1.54136 -8.22061,-1.41292 -16.56965,-4.1103 -8.2206,-2.69739 -13.87227,-7.19303 -5.65166,-4.62409 -5.65166,-10.01886 0,-1.9267 4.23875,-5.78011 4.1103,-3.98185 6.16545,-3.98185 1.02757,0 1.02757,2.05515 0,0.51379 0,0.51379 2.82583,6.2939 10.27575,11.04643 14.5145,9.24818 34.55222,9.24818 13.61537,0 24.53335,-6.03701 v -0.12844 q 0,-6.67924 -9.50507,-13.10159 -5.00942,-3.33962 -12.84469,-8.09215 -8.99128,-5.39477 -15.67052,-11.43177 -9.37662,-8.60595 -9.37662,-20.16617 0,-6.037 4.49564,-11.17488 4.62409,-5.26632 11.17488,-7.9637 6.55079,-2.82583 12.71624,-2.82583 6.2939,0 13.23003,0.77068 z"
       style="fill:#ffffff;stroke-width:6.16545057"
       id="path886" />
  </g>
  <g
     aria-label="125"
     style="font-style:normal;font-variant:normal;font-weight:normal;font-stretch:normal;font-size:82.05059052px;line-height:1.25;font-family:ABlackCrown;-inkscape-font-specification:ABlackCrown;letter-spacing:0px;word-spacing:0px;fill:#ffffff;fill-opacity:1;stroke:none;stroke-width:3.84612107"
     id="text877">
    <path
       d="m 110.82456,30.423047 q -2.96471,11.939002 -10.65696,47.675881 v 0.08013 q 0,0.560893 -3.285226,2.964719 -3.285229,2.483953 -3.926249,2.483953 -0.08013,0 -0.160255,0 2.724336,-10.336451 3.926249,-14.983848 1.28204,-4.647397 3.124973,-13.30117 1.842938,-8.653773 2.884588,-15.945378 -0.64102,0.400637 -2.32369,1.28204 -1.602556,0.801275 -4.647402,2.644209 l -1.92306,1.121785 q 0.08013,-0.400638 1.522423,-2.804463 1.522423,-2.483954 2.24357,-3.205102 0.721148,-0.801275 1.923061,-1.682678 1.282038,-0.881403 1.842938,-1.28204 0.64102,-0.480765 2.24357,-1.522423 1.60255,-1.121786 3.84612,-2.323699 2.24357,-1.28204 2.80446,-1.28204 0.56089,0 0.56089,0.08013 z"
       style="stroke-width:3.84612107"
       id="path889" />
    <path
       d="m 124.12573,75.294464 q 6.16982,-0.801275 11.93901,-0.801275 5.76918,0 11.37811,1.60255 -0.5609,1.682678 -3.92625,5.048035 -0.64102,0.721147 -1.92306,0.721147 -1.28204,0 -5.36855,-0.801275 -4.0865,-0.801275 -6.97109,-0.801275 -2.88459,0 -7.8525,1.201913 -4.96791,1.201913 -8.89416,2.403826 -3.92625,1.201913 -4.72752,1.201913 -0.80128,0 -1.36217,-0.641021 -0.64102,-0.64102 -0.64102,-1.362168 0,-1.121785 1.36217,-1.28204 1.7628,-1.041658 6.08969,-4.727524 1.20191,-0.08013 4.0865,-0.721148 8.4134,-3.765994 14.8236,-11.297982 3.2051,-3.765994 5.12816,-8.41339 2.00319,-4.727525 2.08332,-9.615304 -0.5609,-9.695431 -7.61212,-9.695431 -3.04485,0 -6.73071,1.682678 -1.92306,1.282041 -1.92306,0.96153 0,-0.32051 0.40063,-0.96153 2.96472,-4.887779 5.04804,-6.81084 h 0.16025 l -0.0801,-0.160255 q 3.36535,-1.682678 7.77237,-1.682678 8.97428,0 9.05441,11.458237 0,3.445483 -0.88141,6.730712 -0.8814,3.285229 -2.00318,5.368545 -1.12179,2.083315 -1.92306,3.525611 -0.96153,1.682678 -3.68587,5.048034 -2.88459,3.525612 -7.13135,7.531988 -4.16663,3.926249 -4.6474,4.326887 -0.48076,0.400637 -1.04166,0.96153 z"
       style="stroke-width:3.84612107"
       id="path891" />
    <path
       d="m 162.98759,39.557586 q -2.16345,0.240382 -2.24358,0.240382 -0.72114,0 -0.64102,-0.480765 0,-1.041658 2.40383,-3.926249 2.48395,-2.964718 3.44548,-3.044846 2.00319,0.08013 5.04804,0.08013 3.12497,0 11.13773,-1.041658 8.01275,-1.041658 11.69861,-1.041658 0.64102,0 0.64102,0.400637 0,1.201913 -2.24357,3.605739 -2.24357,2.403826 -3.36535,2.804464 -12.4999,0.881403 -19.95176,1.682678 -1.12178,7.852498 -2.24357,13.62168 3.04485,-1.842933 4.72753,-2.804464 1.7628,-1.041657 4.80765,-2.083315 3.04484,-1.041658 5.84931,-1.041658 2.88459,0 5.44867,1.362168 2.56408,1.28204 4.0865,3.285229 3.04485,4.006376 3.04485,7.852497 0,3.846122 -3.52561,8.733901 -3.52561,4.88778 -8.81403,8.653773 -5.28842,3.765994 -11.69862,6.16982 -6.4102,2.483954 -11.21785,2.483954 -4.72753,0 -7.53199,-1.602551 -2.80446,-1.522423 -2.80446,-4.647397 0,-0.480765 0.0801,-0.560892 2.88459,-3.365357 6.65059,-5.368545 0.72115,6.089692 8.41339,6.089692 0.16025,0 0.24038,0 6.00957,0 11.61849,-2.24357 5.68906,-2.323699 9.21467,-6.330075 3.60574,-4.086504 3.60574,-8.092881 0,-4.086504 -3.12498,-6.650585 -3.12497,-2.564081 -7.61211,-2.564081 -4.48714,0 -8.01275,1.762806 -3.52562,1.682678 -7.53199,4.567269 -0.40064,0.64102 -1.20191,1.121786 -0.80128,0.400637 -1.52243,0.400637 -1.04166,0 -1.04166,-0.96153 0,-2.884591 1.4423,-8.733901 1.52242,-5.84931 1.68268,-8.253135 -0.0801,-0.400638 -0.16026,-1.282041 0,-0.881403 1.20192,-2.163443 z"
       style="stroke-width:3.84612107"
       id="path893" />
  </g>
</svg>
